<svg width="44" height="24" fill="none" xmlns="http://www.w3.org/2000/svg"><path d="M42.716 23.004c0 .5-.406.906-.906.906H11.38a.905.905 0 0 1-.666-.293L.618 12.64a.905.905 0 0 1 0-1.226L10.709.438a.906.906 0 0 1 .667-.293H41.81c.5 0 .906.405.906.906v21.953Z" fill="#000"/><path d="M1.284 12.027 11.38 23.004h30.43V1.051H11.376L1.284 12.027Z" fill="#00A651"/><path d="m32.373 12.027.005 10.977h9.432V1.051h-9.437v10.976Z" fill="#fff"/><path d="M40.202 7.549a1.3 1.3 0 0 1 .064.244c.009.06 0 .104-.036.136-.037.032-.086.05-.168.054-.081.01-.19.01-.326.01s-.258 0-.34-.005a.62.62 0 0 1-.185-.027.193.193 0 0 1-.09-.055.239.239 0 0 1-.042-.09l-.37-1.11h-2.07l-.349 1.078a.29.29 0 0 1-.045.1.173.173 0 0 1-.09.063.69.69 0 0 1-.178.032 4.829 4.829 0 0 1-.294.009c-.131 0-.23 0-.308-.014-.072-.009-.127-.027-.154-.063-.027-.032-.036-.077-.031-.14a1.75 1.75 0 0 1 .063-.24l1.698-4.891a.472.472 0 0 1 .059-.118.188.188 0 0 1 .109-.068.966.966 0 0 1 .208-.031c.09-.005.204-.005.349-.005.167 0 .298 0 .398.005.1 0 .177.013.231.031.054.014.095.041.118.073a.472.472 0 0 1 .063.127L40.19 7.54l.013.009Zm-2.526-4.04-.78 2.342h1.563l-.779-2.342h-.004ZM37.83 9.235a.494.494 0 0 1 .177.074l.075.061 1.245 1.245.018.019.03.038a.494.494 0 0 1-.744.64l-.404-.406v3.527a.493.493 0 0 1-.985 0v-3.525l-.4.402a.493.493 0 0 1-.697-.695l1.24-1.245.02-.016.035-.03.02-.015a.493.493 0 0 1 .273-.083l.097.01ZM39.88 16.959c0 .081 0 .149-.008.208a.511.511 0 0 1-.028.14.204.204 0 0 1-.04.073.096.096 0 0 1-.06.022c-.03 0-.085-.027-.162-.077a2.796 2.796 0 0 0-.743-.326 2.163 2.163 0 0 0-.602-.077 1.57 1.57 0 0 0-.661.136c-.2.09-.367.222-.507.385s-.25.367-.322.602a2.48 2.48 0 0 0-.113.775c0 .312.036.584.113.82.077.235.181.434.322.593.14.158.303.28.493.362a1.638 1.638 0 0 0 .978.081c.114-.027.213-.068.313-.127v-1.263h-.951c-.046 0-.082-.032-.109-.095a.9.9 0 0 1-.04-.322c0-.076 0-.145.008-.199.005-.054.018-.095.028-.127a.22.22 0 0 1 .045-.072.085.085 0 0 1 .063-.023h1.698a.238.238 0 0 1 .195.09.24.24 0 0 1 .054.114.52.52 0 0 1 .018.15v2.164a.555.555 0 0 1-.04.222c-.027.063-.082.113-.168.15-.086.036-.19.072-.312.113a3.93 3.93 0 0 1-1.2.186 2.97 2.97 0 0 1-1.078-.186 2.117 2.117 0 0 1-.806-.544 2.377 2.377 0 0 1-.507-.865 3.524 3.524 0 0 1-.177-1.159c0-.435.064-.847.186-1.2a2.53 2.53 0 0 1 .53-.906c.23-.249.502-.439.824-.57.321-.131.684-.2 1.078-.2a3.374 3.374 0 0 1 1.06.168c.13.045.244.095.33.15.086.054.15.1.185.14.037.04.06.095.077.168.014.072.023.176.023.317l.014.009ZM21.51 6.34c.296 0 .56 0 .763.015.17.012.362.028.523.077a.86.86 0 0 1 .407.25l.047.06.059.092c.05.09.087.188.116.286l3.107 9.645h-.002c.068.218.11.397.132.541l.001.008.001.01c.02.176.008.433-.193.634-.17.17-.4.222-.581.24a7.036 7.036 0 0 1-.64.024c-.243 0-.487 0-.658-.016a2.43 2.43 0 0 1-.425-.066l-.012-.003-.011-.004a.762.762 0 0 1-.383-.272.975.975 0 0 1-.14-.303l-.575-1.867H19.94l-.541 1.805c-.03.098-.07.202-.125.298a.767.767 0 0 1-.381.317 1.599 1.599 0 0 1-.445.095h-.007l-.008.001c-.143.01-.334.02-.569.02a4.9 4.9 0 0 1-.621-.032c-.187-.024-.407-.092-.565-.276l-.006-.008-.006-.007a.809.809 0 0 1-.148-.604c.019-.163.07-.357.137-.559l3.101-9.648.002-.005c.04-.12.093-.24.166-.345l.045-.058a.868.868 0 0 1 .377-.248c.152-.053.33-.074.5-.083.17-.01.393-.014.664-.014Zm-.846 6.747h1.627l-.814-2.645-.813 2.645Z" fill="#231F20"/><path d="M26.096 16.895c.064.204.1.362.118.48.014.118-.005.204-.063.263-.06.059-.159.095-.304.108a6.614 6.614 0 0 1-.598.023c-.253 0-.47 0-.615-.013a2.052 2.052 0 0 1-.34-.05c-.077-.027-.131-.06-.163-.104a.533.533 0 0 1-.077-.177l-.675-2.187h-3.776l-.639 2.128a.91.91 0 0 1-.081.2.318.318 0 0 1-.163.126c-.077.032-.181.05-.317.064-.136.009-.317.018-.54.018-.24 0-.425-.01-.56-.028-.137-.018-.227-.058-.281-.122-.05-.063-.068-.154-.055-.271a2.6 2.6 0 0 1 .118-.472l3.102-9.65a.916.916 0 0 1 .109-.23.39.39 0 0 1 .199-.136c.09-.032.217-.05.376-.059.158-.009.371-.014.638-.014.303 0 .548 0 .73.014.18.014.32.027.425.059a.389.389 0 0 1 .217.14.83.83 0 0 1 .113.254l3.107 9.645-.005-.009Zm-4.614-7.979h-.01l-1.421 4.624h2.853l-1.422-4.624Z" fill="#fff"/></svg>