<svg width="32" height="32" viewBox="0 0 32 32" fill="none" xmlns="http://www.w3.org/2000/svg">
<path d="M28.1998 18.7379L26.0853 21.5427L27.6133 24.818H25.191L24.2794 22.8064L22.916 24.818H21.0057L23.4609 21.44L22.2122 18.7382H24.5882L25.2957 20.2319L26.3401 18.7382L28.1998 18.7379ZM18.3233 23.5171C18.7298 23.5171 19.007 23.2047 19.1516 22.578C19.2817 22.0644 19.3548 21.537 19.3696 21.0062C19.3696 20.3651 19.1425 20.0445 18.6957 20.0445C18.2973 20.0445 18.0212 20.3644 17.8674 21.0043C17.7333 21.5159 17.6571 22.042 17.6404 22.5719C17.6399 23.2027 17.8676 23.5176 18.3233 23.5171ZM18.2303 24.9986C17.4775 25.0219 16.7437 24.7521 16.1732 24.2425C15.895 23.985 15.6757 23.6663 15.5314 23.3098C15.387 22.9533 15.3212 22.5678 15.3388 22.1816C15.3229 21.7056 15.4004 21.2313 15.5666 20.7873C15.7329 20.3433 15.9843 19.939 16.3058 19.5988C16.624 19.2656 17.005 19.0038 17.425 18.8298C17.8451 18.6559 18.2952 18.5735 18.7472 18.5877C19.645 18.5877 20.3584 18.8515 20.8876 19.379C21.1441 19.6291 21.3472 19.9322 21.4837 20.2688C21.6202 20.6054 21.6872 20.9679 21.6802 21.3329C21.6802 22.4836 21.3407 23.3823 20.6617 24.0289C20.0034 24.6673 19.1314 25.0149 18.2303 24.9986ZM10.3877 22.9992H11.5728C11.7088 23.015 11.8464 23.0019 11.9772 22.9605C12.108 22.9192 12.2293 22.8506 12.3337 22.7589C12.4647 22.618 12.5391 22.4306 12.5416 22.2348C12.5457 22.1292 12.5271 22.024 12.4874 21.9266C12.4477 21.8293 12.3878 21.7422 12.3119 21.6717C12.1182 21.5154 11.8755 21.4392 11.6307 21.4579H10.6379L10.3877 22.9992ZM10.9167 19.7363H11.8221C12.5455 19.7363 12.9076 19.4876 12.9083 18.9903C12.9083 18.5526 12.6216 18.3341 12.048 18.3349H11.1426L10.9167 19.7363ZM7.7998 24.8178L9.12347 16.6017H12.3975C12.89 16.5891 13.3819 16.6451 13.8601 16.7682C14.2503 16.8859 14.5927 17.1328 14.8349 17.4711C15.0772 17.8095 15.206 18.2207 15.2017 18.6421C15.2125 19.1137 15.0487 19.5718 14.744 19.9221C14.4147 20.2857 13.9835 20.5328 13.5114 20.6283C14.3832 20.9447 14.8191 21.5406 14.8191 22.4158C14.8255 23.0376 14.6022 23.6383 14.195 24.0948C13.7787 24.5778 13.0864 24.8188 12.118 24.818L7.7998 24.8178Z" fill="#161615"/>
<path fill-rule="evenodd" clip-rule="evenodd" d="M16.3391 14.7074L16.5763 13.4639L19.6935 10.3722H17.3819L17.6427 8.97181H22.6685L22.4433 10.1818L19.2655 13.2848H21.9561L21.6953 14.7076L16.3391 14.7074Z" fill="#002652"/>
<path fill-rule="evenodd" clip-rule="evenodd" d="M13.6015 14.6852L15.0357 7H17.3471L15.9129 14.6852H13.6015Z" fill="#002652"/>
<path fill-rule="evenodd" clip-rule="evenodd" d="M11.3971 12.0412C11.0047 12.0296 10.6161 12.1166 10.2709 12.2932C10.1349 12.357 10.015 12.4475 9.91894 12.5585C9.82292 12.6696 9.75307 12.7988 9.71405 12.9374C9.70411 13.0808 9.74142 13.2236 9.82084 13.3462C9.86726 13.3969 9.92606 13.4361 9.99214 13.4605C10.0582 13.4849 10.1296 13.4937 10.2001 13.4862L10.5912 13.4199C10.7683 13.3702 10.9239 13.2681 11.0352 13.1287C11.1878 12.9395 11.2841 12.7152 11.3139 12.4789L11.3969 12.0421M11.1716 13.8793C10.9552 14.1824 10.6451 14.4151 10.2837 14.5458C9.86826 14.7148 9.42027 14.8006 8.96797 14.798C8.5326 14.8166 8.10186 14.707 7.73517 14.4844C7.56137 14.3692 7.42128 14.2142 7.328 14.034C7.23471 13.8538 7.19127 13.6541 7.20172 13.4537L7.21364 13.2183C7.37969 12.352 7.96447 11.7359 8.96797 11.3699C9.80148 11.0947 10.6812 10.9657 11.5637 10.9892L11.6231 10.7986C11.6313 10.7157 11.6201 10.632 11.5904 10.5536C11.5607 10.4752 11.5131 10.4039 11.4511 10.3448C11.3186 10.2459 11.1524 10.1961 10.9838 10.2048C10.7676 10.2055 10.556 10.2637 10.3732 10.3728C10.2827 10.4216 10.2038 10.4877 10.1417 10.5667C10.0795 10.6458 10.0353 10.7362 10.012 10.8322L7.86649 10.6641C8.12267 10.0562 8.61432 9.56344 9.24135 9.28607C9.91771 8.99469 10.6555 8.85293 11.3985 8.87156C12.2282 8.87156 12.8406 8.9724 13.2358 9.1741C13.4626 9.28848 13.6495 9.46262 13.7736 9.67541C13.8978 9.8882 13.9539 10.1305 13.9352 10.3728V10.6641C13.9113 10.7611 13.8957 10.8321 13.8884 10.877L13.3893 13.5871C13.3528 13.7945 13.333 14.0043 13.3302 14.2145C13.3255 14.3799 13.3412 14.5452 13.3769 14.7072H11.1368L11.1013 14.4943L11.1716 13.8793Z" fill="#002652"/>
<path fill-rule="evenodd" clip-rule="evenodd" d="M26.2586 12.0412C25.8663 12.0297 25.4778 12.1166 25.1326 12.2932C24.9966 12.357 24.8766 12.4475 24.7806 12.5585C24.6845 12.6696 24.6146 12.7988 24.5756 12.9374C24.5657 13.0808 24.603 13.2236 24.6823 13.3462C24.7288 13.3968 24.7876 13.4361 24.8537 13.4605C24.9197 13.4848 24.9911 13.4937 25.0616 13.4862L25.4525 13.4199C25.6296 13.3702 25.7852 13.2681 25.8964 13.1286C26.049 12.9395 26.1452 12.7151 26.175 12.4789L26.2579 12.0421M26.0327 13.8793C25.8162 14.1824 25.5062 14.4152 25.1448 14.5458C24.7293 14.7148 24.2813 14.8006 23.829 14.798C23.3937 14.8166 22.963 14.707 22.5964 14.4844C22.4226 14.3692 22.2825 14.2142 22.1892 14.034C22.0959 13.8538 22.0525 13.6541 22.063 13.4537L22.0749 13.2183C22.241 12.352 22.8257 11.7359 23.8292 11.3699C24.6628 11.0947 25.5426 10.9656 26.4252 10.9892L26.4843 10.7986C26.4926 10.7157 26.4815 10.6321 26.4518 10.5536C26.4221 10.4752 26.3746 10.4039 26.3126 10.3448C26.18 10.2459 26.0139 10.1961 25.8453 10.2048C25.6292 10.2055 25.4176 10.2637 25.2349 10.3728C25.1444 10.4216 25.0655 10.4876 25.0033 10.5667C24.941 10.6457 24.8969 10.7361 24.8735 10.8322L22.728 10.6641C22.9842 10.0562 23.4758 9.56342 24.1029 9.28606C24.7792 8.99471 25.517 8.85295 26.26 8.87155C27.0898 8.87155 27.7023 8.9724 28.0973 9.1741C28.3242 9.28845 28.511 9.4626 28.6352 9.67539C28.7593 9.88818 28.8154 10.1305 28.7967 10.3728V10.6641C28.7728 10.7611 28.7572 10.8321 28.7499 10.877L28.2499 13.5871C28.2133 13.7945 28.1936 14.0043 28.1908 14.2145C28.1861 14.3799 28.2017 14.5452 28.2375 14.7072H25.9974L25.9619 14.4943L26.0327 13.8793Z" fill="#002652"/>
</svg>
