<svg width="45" height="45" viewBox="0 0 45 45" fill="none" xmlns="http://www.w3.org/2000/svg">
<circle cx="22.503" cy="22.503" r="22.5" transform="rotate(-8.32102 22.503 22.503)" fill="#F8E923"/>
<path d="M16.8197 10.6833C16.8705 11.0304 16.8649 11.3576 16.8029 11.6649C16.7409 11.9721 16.621 12.2485 16.4431 12.494C16.2707 12.7386 16.0391 12.9441 15.7483 13.1105C15.4575 13.2768 15.111 13.3893 14.7089 13.4482C14.3012 13.5078 13.9343 13.4996 13.608 13.4235C13.2818 13.3474 12.9983 13.2173 12.7575 13.033C12.5223 12.848 12.331 12.6171 12.1836 12.3405C12.0362 12.0638 11.9372 11.7519 11.8864 11.4049L11.3607 7.81025L12.6498 7.62171L13.1682 11.1667C13.1948 11.3485 13.247 11.5125 13.3246 11.6587C13.4078 11.8041 13.5101 11.927 13.6317 12.0274C13.7525 12.1222 13.8894 12.1923 14.0423 12.2374C14.1999 12.2763 14.3641 12.2832 14.5348 12.2582C14.7056 12.2332 14.8582 12.18 14.9926 12.0984C15.1261 12.0114 15.2372 11.9051 15.3257 11.7796C15.4135 11.6486 15.4736 11.502 15.5062 11.3397C15.5442 11.1765 15.5499 11.0041 15.5233 10.8223L15.0048 7.27726L16.2939 7.08871L16.8197 10.6833ZM13.6028 5.82803L15.2886 5.58147L14.033 6.9805L12.9422 7.14004L13.6028 5.82803ZM17.5969 8.77187L18.8365 8.59058L18.9307 9.23513L18.9473 9.23272C19.0432 8.96548 19.1732 8.75796 19.3373 8.61017C19.5006 8.45688 19.7199 8.36009 19.9954 8.3198C20.067 8.30932 20.139 8.3016 20.2114 8.29664C20.2839 8.29167 20.3516 8.29302 20.4146 8.30069L20.5802 9.43278C20.488 9.41813 20.397 9.41174 20.3073 9.41361C20.2222 9.40917 20.1329 9.4138 20.0392 9.4275C19.8023 9.46215 19.6199 9.52259 19.4918 9.60885C19.3637 9.6951 19.27 9.80446 19.2106 9.93694C19.1559 10.0631 19.1296 10.2104 19.1318 10.3789C19.1339 10.5474 19.1495 10.7308 19.1785 10.9291L19.4238 12.6066L18.1843 12.7879L17.5969 8.77187ZM20.9617 10.3307C20.915 10.0112 20.9305 9.71352 21.0084 9.43768C21.0862 9.16183 21.211 8.91851 21.3827 8.70771C21.5591 8.49059 21.7751 8.31271 22.0305 8.17407C22.2915 8.03462 22.5762 7.94233 22.8847 7.89721C23.1932 7.85209 23.4897 7.85937 23.7741 7.91905C24.0641 7.97793 24.3219 8.08651 24.5476 8.24481C24.778 8.3968 24.97 8.59379 25.1236 8.83579C25.2771 9.07779 25.3773 9.35855 25.424 9.67807C25.4707 9.9976 25.4552 10.2953 25.3774 10.5711C25.2996 10.847 25.1724 11.0934 24.996 11.3106C24.8243 11.5214 24.6079 11.6965 24.347 11.8359C24.0915 11.9746 23.8096 12.0665 23.5011 12.1116C23.1926 12.1567 22.8933 12.1498 22.6034 12.091C22.3189 12.0313 22.0615 11.9254 21.8311 11.7735C21.6054 11.6152 21.4157 11.415 21.2622 11.173C21.1086 10.931 21.0085 10.6502 20.9617 10.3307ZM22.2013 10.1494C22.2456 10.4524 22.3668 10.6851 22.565 10.8474C22.7687 11.0089 23.0275 11.0667 23.3415 11.0208C23.6555 10.9749 23.8842 10.8458 24.0276 10.6335C24.1765 10.4204 24.2288 10.1624 24.1845 9.85937C24.1402 9.55637 24.0162 9.32411 23.8125 9.16259C23.6143 9.00026 23.3582 8.94206 23.0442 8.98799C22.7302 9.03392 22.4988 9.16343 22.3499 9.37651C22.2065 9.5888 22.1569 9.84644 22.2013 10.1494ZM25.5341 5.33213L26.7736 5.15084L27.332 8.96856L28.4717 7.18135L29.9922 6.95896L28.662 9.00193L30.6209 10.969L29.0591 11.1974L27.4065 9.36279L27.39 9.36521L27.6873 11.398L26.4478 11.5793L25.5341 5.33213Z" fill="black"/>
<path d="M19.2577 34.5248L20.3981 34.358L20.4754 34.8869L20.4919 34.8845C20.531 34.8056 20.5839 34.7247 20.6506 34.6418C20.7219 34.5526 20.8055 34.47 20.9013 34.3941C21.0026 34.3174 21.1138 34.2505 21.2349 34.1934C21.3559 34.1363 21.4881 34.0973 21.6313 34.0764C21.9288 34.0329 22.2064 34.0457 22.4641 34.1149C22.721 34.1786 22.9486 34.2917 23.1467 34.454C23.3496 34.61 23.5164 34.8079 23.6471 35.0476C23.7778 35.2873 23.8653 35.5586 23.9097 35.8616C23.9508 36.1426 23.9462 36.419 23.8959 36.6908C23.8503 36.9563 23.7622 37.1999 23.6314 37.4216C23.5062 37.6425 23.3395 37.83 23.1313 37.9843C22.9224 38.133 22.6747 38.2283 22.3882 38.2702C22.1293 38.3081 21.8812 38.3049 21.6441 38.2609C21.4116 38.2105 21.2097 38.0993 21.0383 37.9275L21.0217 37.9299L21.3602 40.2436L20.1206 40.4249L19.2577 34.5248ZM20.6917 36.366C20.7361 36.669 20.8573 36.9017 21.0555 37.064C21.2592 37.2256 21.518 37.2833 21.832 37.2374C22.146 37.1915 22.3747 37.0624 22.5181 36.8501C22.667 36.637 22.7193 36.379 22.675 36.076C22.6307 35.773 22.5067 35.5407 22.303 35.3792C22.1048 35.2169 21.8487 35.1587 21.5347 35.2046C21.2207 35.2505 20.9892 35.38 20.8403 35.5931C20.697 35.8054 20.6474 36.0631 20.6917 36.366ZM24.8553 37.0822C24.8399 36.9775 24.8447 36.8756 24.8696 36.7763C24.8945 36.677 24.9351 36.5894 24.9915 36.5137C25.0527 36.4316 25.1273 36.3644 25.2153 36.3121C25.3033 36.2599 25.3996 36.2261 25.5043 36.2108C25.609 36.1955 25.711 36.2003 25.8103 36.2251C25.9095 36.25 25.9975 36.2934 26.0741 36.3553C26.1553 36.411 26.2221 36.4828 26.2744 36.5708C26.3266 36.6588 26.3604 36.7552 26.3757 36.8598C26.391 36.9645 26.3863 37.0665 26.3614 37.1658C26.3365 37.2651 26.2935 37.3558 26.2324 37.4379C26.176 37.5136 26.1037 37.5776 26.0157 37.6299C25.9277 37.6822 25.8314 37.716 25.7267 37.7313C25.622 37.7466 25.52 37.7418 25.4207 37.7169C25.3215 37.6921 25.2312 37.6518 25.1499 37.5962C25.0733 37.5342 25.0089 37.4593 24.9566 37.3712C24.9044 37.2832 24.8706 37.1869 24.8553 37.0822ZM29.8262 36.5662L29.8097 36.5686C29.7034 36.8036 29.5414 36.9848 29.3237 37.1123C29.1115 37.239 28.8787 37.3209 28.6253 37.358C28.438 37.3853 28.2522 37.3844 28.0678 37.3551C27.8898 37.3305 27.727 37.2755 27.5795 37.1902C27.432 37.1049 27.3084 36.9907 27.2087 36.8477C27.109 36.7048 27.0443 36.5314 27.0144 36.3275C26.9806 36.0961 26.9933 35.8945 27.0526 35.7227C27.1174 35.55 27.2137 35.4009 27.3416 35.2753C27.4751 35.1489 27.6314 35.0444 27.8107 34.9619C27.9891 34.8739 28.1755 34.8016 28.3698 34.7451C28.5696 34.6877 28.7682 34.6418 28.9657 34.6073C29.1688 34.572 29.3557 34.5418 29.5265 34.5168C29.4942 34.2965 29.389 34.1346 29.2107 34.0313C29.0371 33.9216 28.8429 33.8825 28.628 33.9139C28.4242 33.9438 28.2433 34.0152 28.0854 34.1283C27.9323 34.2351 27.8004 34.3726 27.69 34.5407L26.9298 33.9598C27.1297 33.7111 27.3763 33.5118 27.6695 33.362C27.9619 33.2067 28.2734 33.1049 28.6039 33.0566C28.9675 33.0034 29.2718 33.0067 29.5169 33.0665C29.7667 33.12 29.9733 33.2248 30.1368 33.381C30.3058 33.5363 30.4368 33.7394 30.5298 33.9903C30.6219 34.2356 30.6926 34.5263 30.7418 34.8624L31.0403 36.9035L29.8999 37.0702L29.8262 36.5662ZM29.3367 35.3548C29.2431 35.3685 29.1254 35.3914 28.9838 35.4233C28.8469 35.449 28.7152 35.4908 28.5886 35.5487C28.4675 35.6058 28.3658 35.6797 28.2834 35.7706C28.2066 35.8606 28.1782 35.9744 28.1983 36.1122C28.2201 36.2609 28.2996 36.3618 28.4367 36.4149C28.5739 36.468 28.7114 36.4845 28.8491 36.4643C28.9703 36.4466 29.0836 36.4131 29.1889 36.364C29.2998 36.314 29.3948 36.2523 29.4741 36.1788C29.5534 36.1053 29.611 36.0181 29.6469 35.9172C29.6883 35.8155 29.6997 35.7013 29.6812 35.5746L29.6425 35.3101L29.3367 35.3548ZM31.7388 36.0754C31.7235 35.9708 31.7283 35.8688 31.7531 35.7695C31.778 35.6702 31.8186 35.5827 31.8751 35.5069C31.9362 35.4248 32.0108 35.3576 32.0988 35.3054C32.1868 35.2531 32.2832 35.2193 32.3878 35.204C32.4925 35.1887 32.5945 35.1935 32.6938 35.2183C32.7931 35.2432 32.881 35.2866 32.9576 35.3486C33.0389 35.4042 33.1057 35.476 33.1579 35.564C33.2102 35.652 33.244 35.7484 33.2593 35.8531C33.2746 35.9577 33.2698 36.0597 33.2449 36.159C33.2201 36.2583 33.1771 36.349 33.1159 36.4311C33.0595 36.5069 32.9873 36.5709 32.8993 36.6231C32.8112 36.6754 32.7149 36.7092 32.6102 36.7245C32.5056 36.7398 32.4036 36.735 32.3043 36.7101C32.205 36.6853 32.1147 36.645 32.0334 36.5894C31.9568 36.5275 31.8924 36.4525 31.8402 36.3645C31.7879 36.2764 31.7541 36.1801 31.7388 36.0754Z" fill="black"/>
<path d="M9.12178 28.7925L4.06752 29.5318L3.76609 27.4708L7.44058 19.5824L10.1231 19.1901L11.1757 26.3871L12.6642 26.1694L12.9656 28.2303L11.4772 28.448L11.8169 30.7707L9.46149 31.1152L9.12178 28.7925ZM8.23662 22.7405L8.2039 22.7453L6.21961 27.112L8.82034 26.7316L8.23662 22.7405ZM13.6505 27.796L16.0059 27.4515L15.2084 32.2795L13.1147 32.5857L13.6505 27.796ZM20.6281 25.2552C20.5021 25.307 20.3752 25.3534 20.2475 25.3944C20.1199 25.4353 19.9852 25.4662 19.8434 25.4869C19.2982 25.5667 18.7877 25.5411 18.3119 25.4102C17.8361 25.2793 17.4154 25.068 17.0497 24.7762C16.684 24.4844 16.3804 24.1222 16.139 23.6898C15.8959 23.2464 15.7361 22.763 15.6596 22.2396C15.5719 21.6398 15.602 21.0841 15.7499 20.5724C15.9071 20.0482 16.151 19.5837 16.4816 19.179C16.8232 18.7726 17.2421 18.4385 17.7384 18.1765C18.2331 17.9037 18.7858 17.7226 19.3964 17.6333C19.9962 17.5456 20.5721 17.5616 21.1242 17.6813C21.6857 17.7885 22.1827 17.9887 22.6154 18.2818C23.059 18.5734 23.4258 18.9485 23.7156 19.4073C24.0148 19.8537 24.2083 20.3767 24.296 20.9764C24.3566 21.3908 24.3742 21.778 24.3489 22.1382C24.322 22.4874 24.2655 22.8242 24.1793 23.1487C24.104 23.4715 23.9999 23.7875 23.8669 24.0965C23.7432 24.3931 23.6102 24.7021 23.4678 25.0236L21.5115 29.3528L18.5182 29.7906L20.6281 25.2552ZM18.1274 21.9789C18.204 22.5023 18.4368 22.9138 18.8259 23.2133C19.2243 23.5003 19.7015 23.6031 20.2577 23.5218C20.8138 23.4404 21.2362 23.206 21.5248 22.8185C21.8227 22.4185 21.9334 21.9568 21.8568 21.4334C21.7802 20.91 21.5428 20.5048 21.1444 20.2178C20.7553 19.9183 20.2827 19.8092 19.7266 19.8905C19.1704 19.9719 18.7434 20.2125 18.4455 20.6125C18.1569 21 18.0509 21.4555 18.1274 21.9789ZM36.3364 24.0604C36.271 23.6133 36.2914 23.1815 36.3975 22.765C36.5146 22.3469 36.6933 21.9699 36.9338 21.634C37.1852 21.2966 37.4952 21.0173 37.8638 20.7963C38.2308 20.5645 38.6379 20.4158 39.085 20.3504C39.5321 20.285 39.9647 20.3109 40.3828 20.4279C40.7992 20.5341 41.1708 20.7136 41.4974 20.9666C41.8348 21.2179 42.1141 21.5279 42.3351 21.8966C42.5669 22.2636 42.7156 22.6707 42.781 23.1178C42.8464 23.5649 42.8213 24.0029 42.7059 24.4319C42.5997 24.8484 42.421 25.2254 42.1696 25.5628C41.9291 25.8987 41.6254 26.1826 41.2583 26.4145C40.8897 26.6355 40.4818 26.7787 40.0348 26.8441C39.5877 26.9095 39.1559 26.8891 38.7394 26.7829C38.3213 26.6659 37.9435 26.4817 37.606 26.2303C37.2795 25.9774 37.0002 25.6674 36.7683 25.3003C36.5458 24.9208 36.4018 24.5074 36.3364 24.0604ZM41.1126 23.3618C41.0488 22.9256 40.8419 22.5772 40.4919 22.3165C40.1528 22.0543 39.7652 21.955 39.329 22.0188C38.8928 22.0826 38.5444 22.2895 38.2837 22.6395C38.034 22.9879 37.941 23.3802 38.0048 23.8163C38.0702 24.2634 38.2724 24.6181 38.6115 24.8804C38.9615 25.141 39.3546 25.2395 39.7907 25.1757C40.2269 25.1119 40.5699 24.9058 40.8197 24.5574C41.0803 24.2074 41.178 23.8089 41.1126 23.3618ZM27.3075 19.7842C27.2421 19.3371 27.2625 18.9053 27.3686 18.4888C27.4857 18.0707 27.6644 17.6937 27.9049 17.3579C28.1563 17.0204 28.4663 16.7411 28.8349 16.5202C29.2019 16.2883 29.609 16.1396 30.0561 16.0742C30.5032 16.0088 30.9358 16.0347 31.3538 16.1517C31.7703 16.2579 32.1419 16.4374 32.4684 16.6904C32.8059 16.9418 33.0852 17.2518 33.3061 17.6204C33.538 17.9874 33.6867 18.3945 33.7521 18.8416C33.8175 19.2887 33.7916 19.7213 33.6746 20.1393C33.5684 20.5558 33.3897 20.9328 33.1383 21.2703C32.8978 21.6062 32.5941 21.8901 32.227 22.122C31.8584 22.343 31.4505 22.4861 31.0035 22.5515C30.5564 22.6169 30.1246 22.5965 29.7081 22.4904C29.29 22.3733 28.9122 22.1891 28.5747 21.9378C28.2482 21.6848 27.9689 21.3748 27.737 21.0078C27.5161 20.6391 27.3729 20.2313 27.3075 19.7842ZM32.0837 19.0856C32.0199 18.6494 31.813 18.301 31.463 18.0403C31.1239 17.7781 30.7363 17.6788 30.3001 17.7426C29.8639 17.8064 29.5155 18.0133 29.2548 18.3633C29.0051 18.7117 28.9121 19.104 28.9759 19.5402C29.0397 19.9763 29.2411 20.3256 29.5802 20.5878C29.9302 20.8485 30.3233 20.9469 30.7594 20.8831C31.1956 20.8193 31.5386 20.6132 31.7884 20.2649C32.049 19.9149 32.1475 19.5218 32.0837 19.0856ZM36.7636 14.7591L38.25 15.3269L33.2291 28.1736L31.8831 27.6521L36.7636 14.7591Z" fill="black"/>
</svg>
